<?xml version="1.0" encoding="UTF-8"?>
<svg id="Calque_2" xmlns="http://www.w3.org/2000/svg" version="1.1" viewBox="0 0 356 448.9">
  <!-- Generator: Adobe Illustrator 29.7.1, SVG Export Plug-In . SVG Version: 2.1.1 Build 8)  -->
  <defs>
    <style>
      .st0 {
        isolation: isolate;
      }

      .st1, .st2 {
        fill: #fff;
      }

      .st2 {
        stroke: #fff;
        stroke-miterlimit: 10;
      }
    </style>
  </defs>
  <g id="Calque_1-2">
    <g>
      <path class="st2" d="M182,358.6c0,4.5-.2,14.1,0,23.9,0,1.4.1,5.8.6,11.3.3,3.3.6,5.4,1,7.5.7,3.5,1.4,6,1.6,6.6.5,1.5.9,2.7,1.9,5.1.8,2,1.6,3.8,2.7,5.2.2.3.8.9,1.6,1.5h0s.6.6,1.6.9c1.8.5,5.3.5,7.7.6,1.6,0,3,.2,4.7.7,1.9.6,3.1,1.3,3.5,1.6,1.6,1,2.6,2.1,3.6,3.1.9,1,1.6,2,2,2.7-.6-.4-1.5-1-2.6-1.7-4.6-2.7-8.8-3.6-11.9-4.2-1.9-.4-4.5-.8-7.6-.9,1.3,1.8,2.6,3.7,4,5.5,5.7,7.5,11.7,13.7,17.5,18.8-1.2-.1-3.2-.5-5.2-1.5-1.1-.6-2.6-1.5-5.2-4.3-2.4-2.6-3.9-4.8-4.9-6.2-2.7-3.8-5.3-7.5-8.9-13.5-2.2-3.7-3.3-5.6-4.2-7.6-.4-.9-2.4-5.5-3.2-11.5,0,0-1.2-5.6-1.8-14.7,0-.5,0-.8,0-1.1-.1-2-.2-3.5-.2-3.8-.1-2.9-.6-9.7-.7-12.7-.1-3.2-.2-7.8,0-13.5.4-4.4.6-6.4.6-7.4,0,0,0-.4,0-.9,0-.6.1-1.3.4-2.5.7-4.1.9-6.8,1.2-8.5.9-5.8,1.5-10.7.4-16.5-1-5-3.5-9.1-7.3-12.5-3.2-2.8-7-3-9.9,0-9.2,9.5-21.1,12.6-33.6,13.9-9.4,1-18.5,2.2-27.6,5.2-11.1,3.7-22.4,6.9-34.2,7.8-2.6.2-5.3-.4-7.9-.5-5.2-.3-9.2,3.5-9.5,8.7,0,1.3-.5,2.9-1.3,3.9-2.7,3.1-2.7,6.4-1.2,9.8,1.1,2.4.7,4.4-.8,6.2-2,2.4-3.9,4.8-6.1,6.9-1.6,1.6-1.7,2.5.1,3.9,2.9,2.2,2.7,5.5-.8,7.9.7-1.4,1.1-2.2,1.4-3,.6-1.5.5-2.7-1.2-3.5-1.2-.6-2.2-1.5-3.1-2.4-3.4.2-3.2,4-4.7,6.8-.2-2.1-.4-3.6-.3-5.2,0-.6,1-1.2,1.7-1.7,3-2.4,6.4-4.3,8.9-7.1,4.3-4.7,4.3-7.1,1.5-13.7-.6.3-1.1.6-1.6.9-1.6.9-3.1,2.1-4.8,2.5-2.9.8-4.6,2.5-5.5,5.2-.8,2.3-1.3,4.6-2.2,6.9-1,2.5-2.3,4.9-3.4,7.4-.6,1.4-1.2,2.9-1.7,4.3-.3,0-.5-.2-.8-.2.1-.6.2-1.2.4-1.8,2.3-6.5,4.5-13,7-19.4.5-1.2,1.9-2.1,3.1-2.8,3.3-2,6.9-3.7,10.1-5.8,2.2-1.5,3.3-3.7,3.2-6.6,0-1.5.7-3,1.1-4.5-3.3.6-6.8,1.3-10.3,1.8-3.3.5-6.6,1.2-9.9,1.2-4.1,0-7.9-1.3-10.6-4.6-.4-.5,0-1.5,0-2.3.7.2,1.7,0,2.1.5,2.7,3.4,6,4.1,10.3,3.7,6.3-.5,12.6-.7,18.7-2.7,1.2-.4,2.4-.9,3.6-1.4,0-.3,0-.6,0-.9-2.5,0-5-.1-7.4-.2-1.1,0-2.2-.1-3.3-.2-.6,0-1.2-.4-1.7-.2-1.1.5-1.9.5-3.1-.2-1-.5-2.6.2-3.8,0-.7-.1-1.2-1-1.9-1.6.7-.4,1.5-.8,2.2-1.2,0,0,.2,0,.2,0,6.9,3.4,14.3.9,21.4,1.9.7.1,1.5-.1,2.2-.4,1-.3,1.9-.7,2.8-1.1,11.2-6.3,23.8-8.1,36.1-10.7,1.9-.4,4-.5,6-.4,7.8.2,15.7,1.2,23.4.5,10.5-.9,20.8-3.4,29.4-10.3,5.2-4.2,7.6-9.7,7.7-16.4,0-4.1,1.3-7.8,3.6-11.2,2.5-3.8,2-7.7-1.4-11.4-2.6-2.8-5.5-5.3-8.4-7.8-2.4-2-4.9-3.7-7.4-5.5-3.6-2.6-5.9-6-7.3-10.1-3.1-8.8-4.6-17.8-5.5-27.1-.3-3.4-2-6.8-3.6-9.9-1.4-2.7-3.7-4.5-6.9-5.2-2.4-.5-4.6-1.8-7-2.7-10.1-3.8-20-3.1-29.6,1.8-.9.5-1.8,1.1-2.7,1.8-.8.6-1.4,1.2-2.5,2.2,1.3-4.6,9.1-8,20.7-9.5-3.7-3.3-7.4-6.4-10.9-9.7-3.5-3.3-6.4-7.1-8.5-11.4.2-.1.3-.3.5-.4.6.6,1.2,1.2,1.6,1.9,4.1,6.2,9.1,11.7,15.2,16,2.4,1.7,5.3,2.9,8.2,3.9,4.5,1.6,9.2,2.7,13.8,4.1.8.2,1.7.5,2.7.8-1.7-2.5-3.2-4.7-4.7-7-3.4-5.1-4.7-10.9-5.7-16.9-.1-.7.2-1.4.3-2.1.7.6,1.8,1.1,2,1.9.7,2.3.9,4.7,1.6,7,1.8,6,4.9,11.2,8.8,16.1,1.5,1.8,3.4,2.8,6.2,2.7-3.1-4.7-5.1-9.4-6.2-14.8,2.5.3,3.6,1.3,4.3,3.4,1.1,3.4,2.6,6.6,4.1,9.9,1.3,2.7,4.3,2.6,6.6,3.5.2,0,1.2-1.2,1.2-1.8,0-2.8-.4-5.6-.5-8.5-.1-2.7-1.5-4.8-3.5-6.4-10.1-8-17.8-18.1-24.6-28.9-1.8-3-5.3-4.9-8.1-7.3-.7-.6-1.3-1.1-2-1.7l.3-.6c.6.3,1.4.5,1.9,1,5.6,4.6,10.9,9,15.3,15.1,5,6.9,11.8,12.6,17.8,18.7.2.2.6.4.9.4.2,0,.5,0,1,0-.4-1.5-1-2.9-1.2-4.3-.1-.9,0-2.5.4-2.6,1.5-.6,3.1-.3,3.6,1.5.5,1.6.9,3.2,1.1,4.9.5,6.3,1,12.6,1.4,18.9.2,3.2,1.2,5.9,3.6,8.2,1.3,1.3,2.3,2.9,3.6,4.6-.3-5.9-.6-11.6-.9-17.3,0-.7-.1-1.4,0-2,.1-.5.6-.8.9-1.3.5.4,1.2.6,1.4,1.1.3.9.2,1.8.2,2.7.4,6,.7,11.9,1.1,17.9.3,4.2,3.3,6.4,6.2,8.5,1.4,1,3,1.8,4.7,2.3,5.3,1.5,10.4,3.3,15.8,4.8,6.5,1.8,13,1.4,19.4,2.5,1.8.3,3.5.8,5.7,1.4-.4-1.3-.6-2.2-1-3.1-2.9-7.2-4.6-14.7-5.3-22.5,0-.6,0-1.2-.3-1.7-3.7-9.1-3.9-18.8-4.6-28.4-.4-4.9-1.3-9.7-1.9-14.6-.9-7.4-1.2-14.9.1-22.4.5-2.9.3-6,.1-9-.6-8.9-1.4-17.8-1.9-26.7-.8-13.8,0-27.4,3.8-40.8.3-1,.1-2.1.3-3.2.2-1.1.5-2.1.6-2.7-.7-2.7-2.1-5.2-1.8-7.6.6-5.4,0-10.3-2.4-15.2-.4-.9-.5-2.1-.6-3.2,0-.5.4-1,.6-1.4.5.3,1.2.6,1.4,1,1.1,3.1,2.2,6.2,3,9.4.4,1.5.4,3.1.2,4.7-.4,3.4-.5,6.6,1.3,9.7.6,1,.7,2.6.5,3.8-.9,5.5-1.9,10.9-2.9,16.4-2.1,11.7-2.5,23.5-.7,35.3,2.2,14.8,2.1,29.6,1.1,44.6-.4,5.5,1.1,11.1,1.7,16.6.6,5.2,1.2,10.4,1.7,15.6,0,.6.1,1.2.2,1.8.3.2.5.4.8.6.8-1.1,1.5-2.4,2.6-3.2,1.6-1.4,3.3-3.1,5.2-3.6,5.3-1.5,10.8-2.7,16.3-3.5,5.7-.9,11.2-3.2,14.9-7,4.7-4.7,8.4-10.7,8.9-17.9.1-1.6.4-2.6,2.2-2.5,2.1.1,1.8,1.6,1.5,2.9-1,5.1-3.1,9.8-5.9,14.2-.4.6-.7,1.2-1.4,2.3,5.4-.9,10.6-.4,14.8-4-.5-1.9-3.1-3.7-.2-6.1.2,1.3.4,2.4.6,3.6,1.1-.2,1.9-.3,2.7-.4-.7,5.3-5.7,5.4-9,7.2,2.1,3,3.9,5.9,6.1,8.6.7.9,2.1,1.1,3.3,1.5.7.2,1.5,0,2.2.1,2.5.3,4.8,0,6.6-2,.7-.7,1.8-1.1,3-1.4-.3.4-.6.9-1.1,1.7h5.4c0,.2,0,.4,0,.6-3.9.7-7.8,1.4-11.7,2,0,.3-.2.7-.2,1,3.9,1.7,7.9,3.5,11.8,5.2,0-.1.1-.2.2-.4h-3.6c0,.2-.1.4-.2.7,1.7.7,3.5,1.5,5.2,2.2-.9.4-1.8.7-2.4,1-3.8-2.7-7.8-5.4-11.7-8.1-.4-.3-.9-.6-1.3-.7-1.4-.1-2.8-.2-4.1-.2.6,1.2,1.1,2.6,2,3.6,1.7,1.8,3.7,3.4,5.7,5.2-2.9.4-.9,2.2-1,3.5-.2.1-.4.2-.6.3-.4-.8-1.2-1.6-1.3-2.4-.3-2.6-1.7-4.3-4-5.7-1-.6-2-1.9-2.2-3.1-.9-4.3-3.8-7.4-6.2-10.6-2.7-3.5-9.8-2.4-11.9,1.5-1.8,3.4-3,7.2-4.5,10.8-1.2,2.8-2.4,5.6-3.6,8.5-.7,1.8-1.6,3.5-2.2,5.2-1.4,3.8-2.7,7.6-4.2,11.7.5,0,1.1.3,1.7.2,4.8-.8,9.7-1.5,14.5-2.5,1.7-.3,3.3-1.1,4.8-1.9,7.3-3.6,14.8-6.3,22.9-7.3,7.4-.9,13.5,1.9,19.5,5.6,9,5.7,15.5,13.7,18.5,23.7,2.8,9.4,2.5,19.2-4.2,27.4-2.2,2.7-5,4.9-7.2,7.5-1.2,1.4-2.2,3.1-2.8,4.8-.7,2.2-1,4.5-1.3,6.8-.4,2.9.2,3.8,3,3.8,3.6,0,7.3,0,11-.2,5.2-.3,10.4-.3,15,2.5,1.2.8,2.5,1.7,3.3,2.9,3.1,4.7,4.1,10.1,5.1,15.5.1.6-.2,1.2-.8,2-.3-.5-.8-.9-.9-1.4-.5-1.9-1-3.7-1.2-5.6-1.3-11.3-9.9-15-19.9-14.5-4.1.2-8.3.4-12.4.4-2.5,0-3.3.9-2.5,3.3,1.2,3.5,5.7,6,9.9,5.5,2.1-.2,4.1-.5,6.2-.6.8,0,1.6.2,2.4.8-2.4.2-4.9.4-7.3.6,0,.2,0,.4,0,.6,6.3,1.2,12.5-1.4,18.8-.5-.8.2-1.6.3-2.6.5,1.3,1.1,2.5,2.2,3.7,3.3,0,.2-.2.4-.3.5-3.4-1.9-6.8-4.5-11-2.1,1.9,1.2,3.8,2.5,5.7,3.8-.1.2-.2.4-.4.6-3.3-1.7-6.7-3.5-10-5.2-.1.2-.3.5-.4.7.9,2.7,3,3.9,5.5,4.5,3.4.7,6.9,1,10.4,1.5.9.1,1.8.4,2.8.6,0,.2,0,.5,0,.7-1.9-.3-3.8-.5-5.7-.8,0,.3-.2.5-.3.8,2.9,1.3,5.8,2.6,8.7,4l-.4.8c-5.9-1.6-10.8-5.7-17-6.6,3,4,7.9,4.6,11.9,6.9-1.1-.2-2.2-.4-3.3-.7-5.5-1.3-9.8-4.1-13-8.9-1.3-1.9-4.1-2.9-6.3-4.1-2.2-1.2-4.8-1.9-6.9-3.2-2.2-1.4-3.6-3.4-3.2-6.3.3-2.1-1.5-1.9-2.7-2-4.9-.5-9.8-.6-14.7-1.3-7.4-1.1-14.7-3.2-22.1-3.8-10.1-.8-19.5-3.8-29.2-6.1-4.1-1-8-.7-12,.6-3.6,1.2-7.4,2-11.1,3-3.8,1-6.9,3.1-9.6,5.9-3,3-6.2,5.7-9.3,8.6-2.1,1.9-4.1,3.9-6.1,5.9-2,2.1-2.3,4.6-1.3,7.4,3,8,4.2,10.4,4.8,13.6.6,2.9.3,5.1-.2,9.3-.5,4.1-1.3,5.9-2.4,11.8-.6,3-.9,5.4-1.1,6.9,0,1.3,0,3.2,0,5.4v4.1h0ZM302.6,270.3c.2.1.4.3.7.4,1.4-1.6,2.8-3.1,4.2-4.7,7-7.7,10.4-16.7,7.6-26.8-3.9-14.4-13.8-24.1-27.5-29.5-2.9-1.2-6.6-1.3-9.8-.8-4.8.7-9.6,2.1-14.1,3.7-9.5,3.4-18.7,7.9-29.1,7.9-.8,0-2,1-2.4,1.8-1.6,3-3.3,6-4.4,9.2-2.1,5.7-2.9,11.6-.7,17.6,1.2,3.4,2,4.2,5.5,3,13.5-4.6,25.2-12.2,35.5-22,3.8-3.6,7.9-5.6,13.1-3.9,5.5,1.7,7,6.8,8.9,11.6-1-.1-1.9-.5-2.4-1.1-1.3-1.8-2.3-3.9-3.5-5.7-2.4-3.7-5-3.9-8.9-2.9-1.4.4-2.6,1.5-3.8,2.3-8.5,6.1-16.9,12.3-25.4,18.4-4.6,3.3-9.3,6.4-13.8,9.8-1.5,1.1-2.7,2.7-3.7,4.3-2,3.3-1.2,6.9,2.2,8.5,4.4,2.2,9.1,4.4,13.8,5.4,7.9,1.7,16.1,2.3,24.1,3.7,11,1.8,20.6-1.6,30-6.8,1.8-1,2.4-2.5,2.3-4.5-.1-5.1-1.3-9.9-4.1-14.2-.8-1.1-1.1-2.6-1.6-3.9.2-.1.5-.3.8-.4,1.2,1.7,2.4,3.3,3.5,5.1,2.6,4.5,3.2,9.5,3.1,14.6h0ZM163.7,227.1c0,1.2,0,2,0,2.8,1,7.6,1.9,15.3,3,22.9.8,5.5,3.9,9.5,8.9,11.8,6.2,2.9,12.8,3.4,19.5,2.8,1.3-.1,2.7-.5,3.8-1.2,3.8-2.3,7.5-4.6,11-7.3,1.9-1.4,3.6-3.3,4.7-5.4,3-6,2.1-10.4-5.1-11.9-5-1-10.3-1.4-15.2-2.8-10.4-3-21.1-5.1-30.6-11.8h0ZM244.7,182.2c-1.2.6-1.9.9-2.6,1.3-4,2.3-8.4,3.5-12.9,4.4-4.1.8-8.4,1.6-12.3,3.1-2.7,1-5,3-7.2,5-1.5,1.3-1.7,3.2-1.2,5.3.6,2.3.8,4.7,1.4,7.1.2.9.7,2.1,1.4,2.4,3.6,1.8,7.1,3.7,10.9,4.9,6.7,2.2,6.8,2.1,10.1-4.2,2.9-5.5,5.7-11.1,8.2-16.7,1.7-3.9,2.8-8.1,4.3-12.6h0ZM227.1,219.2c-5.7-2.3-11-4.5-17.1-6.9,2.5,9,4.9,17.6,7.2,26.2.2,0,.4,0,.6-.1,3.1-6.5,6.2-13.1,9.2-19.2h0ZM162.3,251.8c0-.9,0-1.8-.1-2.7-.4-6.6-1-13.2-1.1-19.8-.1-7.1-4.7-11.6-8.6-16.6-.1,13.9,2.2,27.2,9.9,39.2h0ZM109.7,322.8c0-.3,0-.7,0-1-3.1,0-6.3-.5-9.2,0-8.4,1.6-16.8,3.3-25,5.5-4,1-7.7,3.1-11.5,4.7.1.4.2.7.4,1.1,15.7-.8,30.7-5.1,45.5-10.4h0ZM135.3,206.3c3.8,4.4,5.3,9.1,6.4,14.3,2.2,10.4,4.2,20.9,9.4,30.4.7,1.3,1.3,2,2.5,1.3.5-.3.7-1.7.4-2.4-3.5-9.4-6.3-18.9-7.1-28.9-.3-3.1-1.6-5.5-3.7-7.7-1.2-1.2-2.5-2.6-3.2-4.1-.8-1.9-2.1-2.7-4.6-2.9h0ZM278.4,283v.6c6.3.7,12.6,1.4,19,1.9.5,0,1.5-.6,1.6-1,.6-3.1,1.1-6.3,1.7-9.9-6.9,5.1-14.5,6.9-22.2,8.3Z"/>
      <g class="st0">
        <g class="st0">
          <path class="st1" d="M197.6,25.5h-4.3V4.2h6.6c2.9,0,4.7.4,6,1.4,1.4,1,2.2,2.8,2.2,4.9s-.7,3.4-2,4.3c-.9.7-2.1,1.2-3,1.5l6.5,9.2h-4.7l-5.8-8.4h-1.4v8.4ZM199.9,13.8c1.5,0,2.4-.2,2.9-.8.5-.5.9-1.5.9-2.3s-.4-2-1.1-2.5c-.5-.4-1.3-.6-2.6-.6h-2.4v6.2h2.3Z"/>
        </g>
      </g>
      <g class="st0">
        <g class="st0">
          <path class="st1" d="M262.3,127.2h4.5v8.5h8v-8.5h4.5v21.2h-4.5v-9.2h-8v9.2h-4.5v-21.2Z"/>
        </g>
      </g>
      <g class="st0">
        <g class="st0">
          <path class="st1" d="M349.3,295.2h4.5v21.2h-4.5v-21.2Z"/>
        </g>
      </g>
      <g class="st0">
        <g class="st0">
          <path class="st1" d="M220.4,439.7l10.2-16h-9v-3.5h14.5v1.8l-10,15.9h10.3v3.5h-16v-1.8Z"/>
        </g>
      </g>
      <g class="st0">
        <g class="st0">
          <path class="st1" d="M23.4,352.9c0,6.6-4.4,11-11,11s-11.1-4.3-11.1-11.1,1-5.6,2.7-7.5c2.1-2.2,4.8-3.4,8.4-3.4,6.7,0,11.1,4.4,11.1,11ZM5.9,352.8c0,4.8,2.4,7.6,6.5,7.6s6.5-2.9,6.5-7.5-2.5-7.5-6.5-7.5-6.5,2.9-6.5,7.4Z"/>
        </g>
      </g>
      <g class="st0">
        <g class="st0">
          <path class="st1" d="M57.8,179.2h3.4l5.9,14.5,5.9-14.5h3.4l2.6,21.2h-4.1l-1.5-13.5-5.4,13.5h-2l-5.4-13.5-1.5,13.5h-4l2.6-21.2Z"/>
        </g>
      </g>
    </g>
  </g>
</svg>