<?xml version="1.0" encoding="UTF-8"?>
<svg id="Calque_2" data-name="Calque 2" xmlns="http://www.w3.org/2000/svg" viewBox="0 0 356.01 448.93">
  <defs>
    <style>
      .cls-1 {
        font-family: URWForm-Bold, 'URW Form';
        font-size: 29.72px;
        font-weight: 700;
      }

      .cls-1, .cls-2 {
        fill: #fff;
      }

      .cls-2 {
        stroke: #fff;
        stroke-miterlimit: 10;
      }
    </style>
  </defs>
  <g id="Calque_1-2" data-name="Calque 1">
    <g>
      <path class="cls-2" d="M181.98,358.64c-.07,4.45-.19,14.07-.03,23.93.02,1.43.1,5.77.62,11.32.31,3.26.62,5.43,1.01,7.5.67,3.55,1.41,5.97,1.61,6.6.48,1.53.94,2.71,1.87,5.07.78,1.99,1.55,3.78,2.73,5.2.24.28.77.91,1.62,1.54,0,0,0,0,0,0,0,0,.58.63,1.55.92,1.82.54,5.32.46,7.7.59,1.57.08,2.96.16,4.73.7,1.87.57,3.14,1.34,3.48,1.56,1.64,1.02,2.65,2.14,3.56,3.14.92,1.02,1.59,1.96,2.04,2.66-.58-.43-1.46-1.05-2.58-1.72-4.6-2.74-8.84-3.6-11.94-4.2-1.88-.37-4.48-.75-7.63-.87,1.26,1.83,2.6,3.68,4.03,5.54,5.72,7.47,11.73,13.66,17.49,18.76-1.25-.12-3.18-.46-5.24-1.52-1.14-.59-2.55-1.52-5.16-4.33-2.38-2.58-3.95-4.78-4.95-6.19-2.68-3.8-5.27-7.5-8.85-13.49-2.22-3.71-3.28-5.59-4.21-7.59-.44-.94-2.4-5.46-3.22-11.53,0,0-1.24-5.56-1.75-14.7-.03-.46-.04-.83-.06-1.09-.1-2.02-.17-3.51-.18-3.76-.13-2.88-.57-9.71-.71-12.67-.15-3.16-.25-7.76.09-13.55.45-4.41.6-6.44.62-7.38,0-.09,0-.42.04-.87.04-.57.13-1.3.35-2.54.72-4.14.95-6.82,1.21-8.54.88-5.81,1.53-10.74.36-16.55-1.01-5.02-3.46-9.15-7.28-12.47-3.23-2.81-6.96-2.98-9.86,0-9.24,9.46-21.14,12.65-33.6,13.92-9.38.96-18.51,2.22-27.55,5.22-11.08,3.68-22.39,6.91-34.15,7.76-2.62.19-5.28-.35-7.93-.49-5.19-.27-9.22,3.54-9.51,8.74-.08,1.34-.45,2.94-1.29,3.91-2.65,3.08-2.68,6.4-1.16,9.79,1.07,2.4.71,4.37-.85,6.22-1.98,2.35-3.92,4.75-6.13,6.87-1.64,1.57-1.67,2.53.13,3.92,2.86,2.21,2.68,5.47-.82,7.86.66-1.43,1.07-2.23,1.4-3.05.61-1.49.48-2.7-1.15-3.55-1.17-.61-2.21-1.45-3.06-2.44-3.39.18-3.15,3.99-4.67,6.76-.15-2.07-.43-3.65-.28-5.18.06-.61,1.03-1.17,1.66-1.66,2.99-2.35,6.39-4.32,8.91-7.08,4.28-4.69,4.3-7.11,1.46-13.67-.56.32-1.08.63-1.62.92-1.58.86-3.08,2.07-4.78,2.5-2.93.75-4.6,2.53-5.5,5.22-.76,2.29-1.31,4.65-2.2,6.88-1,2.52-2.31,4.92-3.43,7.39-.64,1.42-1.17,2.89-1.74,4.34-.26-.08-.51-.16-.77-.24.13-.61.21-1.25.41-1.84,2.29-6.5,4.5-13.02,6.99-19.44.46-1.18,1.92-2.12,3.12-2.84,3.33-2,6.86-3.68,10.11-5.79,2.25-1.47,3.33-3.74,3.19-6.64-.07-1.49.71-3.01,1.1-4.49-3.27.58-6.79,1.28-10.34,1.83-3.28.51-6.58,1.19-9.88,1.23-4.1.05-7.87-1.31-10.6-4.59-.39-.46-.04-1.54-.03-2.33.72.16,1.74.08,2.11.53,2.73,3.36,5.95,4.07,10.33,3.73,6.32-.48,12.6-.68,18.67-2.69,1.22-.4,2.4-.93,3.6-1.4-.03-.29-.05-.59-.08-.88-2.47-.07-4.95-.12-7.42-.21-1.12-.04-2.24-.14-3.35-.23-.57-.05-1.23-.36-1.68-.16-1.14.52-1.93.47-3.13-.21-.96-.55-2.58.21-3.85,0-.69-.12-1.24-1.04-1.86-1.6.74-.41,1.48-.83,2.23-1.23.06-.03.17,0,.24.04,6.88,3.42,14.28.85,21.37,1.85.7.1,1.47-.13,2.17-.35.95-.3,1.9-.66,2.76-1.14,11.24-6.29,23.79-8.15,36.14-10.67,1.94-.39,3.97-.47,5.96-.42,7.8.18,15.65,1.17,23.38.54,10.54-.87,20.83-3.36,29.37-10.32,5.16-4.21,7.64-9.67,7.67-16.35.02-4.07,1.32-7.77,3.56-11.25,2.46-3.82,2.01-7.73-1.38-11.43-2.57-2.81-5.5-5.31-8.42-7.77-2.35-1.98-4.89-3.74-7.4-5.51-3.61-2.55-5.89-6-7.33-10.13-3.05-8.77-4.61-17.81-5.5-27.05-.33-3.41-1.99-6.81-3.57-9.94-1.36-2.69-3.73-4.5-6.94-5.22-2.4-.54-4.63-1.82-6.96-2.7-10.14-3.8-20.01-3.09-29.61,1.83-.95.49-1.84,1.14-2.7,1.78-.75.56-1.42,1.23-2.54,2.21,1.29-4.59,9.06-7.98,20.66-9.53-3.68-3.27-7.41-6.39-10.93-9.74-3.47-3.3-6.41-7.06-8.53-11.37.16-.13.33-.27.49-.4.55.64,1.17,1.23,1.63,1.92,4.14,6.23,9.12,11.71,15.2,16.04,2.43,1.74,5.35,2.92,8.2,3.9,4.53,1.56,9.2,2.74,13.8,4.08.85.25,1.71.5,2.73.8-1.66-2.5-3.17-4.74-4.66-7-3.39-5.12-4.69-10.94-5.68-16.86-.11-.67.22-1.41.35-2.12.71.63,1.8,1.14,2.04,1.92.71,2.29.93,4.73,1.61,7.03,1.78,5.98,4.92,11.25,8.84,16.07,1.47,1.81,3.35,2.76,6.21,2.69-3.08-4.74-5.07-9.45-6.2-14.78,2.49.27,3.64,1.27,4.34,3.42,1.1,3.37,2.57,6.64,4.1,9.85,1.27,2.66,4.28,2.57,6.59,3.52.16.07,1.24-1.17,1.23-1.79-.04-2.82-.37-5.64-.49-8.46-.11-2.73-1.5-4.8-3.49-6.37-10.14-8.01-17.81-18.05-24.61-28.94-1.85-2.96-5.31-4.92-8.05-7.33-.66-.58-1.35-1.12-2.03-1.67.11-.19.22-.38.33-.57.64.32,1.37.53,1.92.98,5.57,4.55,10.95,9.04,15.29,15.12,4.95,6.95,11.79,12.56,17.82,18.74.22.22.55.37.86.45.21.06.46-.03,1.01-.09-.44-1.48-1-2.85-1.23-4.27-.14-.88-.06-2.48.37-2.65,1.47-.59,3.05-.3,3.63,1.49.51,1.57.92,3.21,1.07,4.85.54,6.3,1.02,12.6,1.4,18.92.2,3.22,1.21,5.94,3.55,8.25,1.32,1.3,2.31,2.94,3.59,4.61-.33-5.94-.64-11.61-.95-17.28-.04-.66-.13-1.36.03-1.99.12-.47.6-.84.93-1.26.47.37,1.21.65,1.36,1.12.27.85.19,1.81.25,2.72.37,5.97.72,11.95,1.09,17.92.26,4.17,3.26,6.39,6.24,8.53,1.39,1,3.04,1.8,4.69,2.26,5.29,1.46,10.45,3.34,15.76,4.78,6.48,1.75,13.01,1.36,19.44,2.5,1.77.31,3.5.81,5.73,1.35-.41-1.28-.63-2.2-.98-3.07-2.92-7.23-4.65-14.73-5.27-22.49-.05-.58-.08-1.19-.29-1.71-3.7-9.12-3.95-18.78-4.65-28.4-.36-4.88-1.34-9.7-1.9-14.57-.86-7.45-1.19-14.89.12-22.37.51-2.91.31-5.98.12-8.96-.57-8.9-1.41-17.78-1.92-26.69-.79-13.77-.05-27.42,3.75-40.79.29-1.01.13-2.14.3-3.2.18-1.07.5-2.11.65-2.68-.69-2.67-2.07-5.22-1.79-7.56.63-5.38-.06-10.34-2.4-15.17-.45-.94-.53-2.1-.6-3.16-.03-.46.4-.95.63-1.42.48.35,1.24.59,1.41,1.05,1.1,3.1,2.19,6.22,3.03,9.39.39,1.47.41,3.12.24,4.65-.37,3.36-.48,6.58,1.27,9.7.59,1.05.66,2.6.46,3.84-.88,5.49-1.95,10.95-2.95,16.42-2.14,11.72-2.48,23.52-.72,35.29,2.22,14.83,2.12,29.64,1.07,44.56-.39,5.46,1.06,11.05,1.68,16.59.58,5.2,1.16,10.39,1.74,15.59.07.61.15,1.23.22,1.84.27.18.54.37.81.55.84-1.09,1.54-2.36,2.57-3.24,1.62-1.38,3.3-3.07,5.25-3.61,5.34-1.49,10.78-2.67,16.26-3.54,5.71-.91,11.16-3.22,14.89-6.97,4.68-4.71,8.45-10.74,8.89-17.95.1-1.55.38-2.64,2.21-2.53,2.07.12,1.8,1.56,1.55,2.89-.98,5.14-3.12,9.8-5.95,14.17-.39.6-.72,1.23-1.36,2.34,5.42-.86,10.58-.38,14.81-4.02-.46-1.92-3.07-3.74-.2-6.07.2,1.28.37,2.35.56,3.61,1.06-.16,1.91-.29,2.7-.41-.74,5.33-5.68,5.41-9.04,7.21,2.08,2.98,3.93,5.9,6.08,8.57.68.85,2.15,1.14,3.32,1.5.69.21,1.49.02,2.23.1,2.51.28,4.76-.07,6.65-1.99.72-.74,1.8-1.13,2.99-1.43-.28.44-.56.88-1.07,1.66h5.42c.02.19.03.38.05.58-3.91.67-7.82,1.35-11.73,2.02-.08.34-.17.68-.25,1.02,3.94,1.73,7.87,3.46,11.81,5.19.07-.12.14-.24.21-.36h-3.64c-.06.23-.13.45-.19.68,1.74.74,3.48,1.48,5.21,2.22-.93.39-1.75.73-2.4.99-3.82-2.66-7.75-5.41-11.69-8.14-.41-.28-.85-.65-1.31-.7-1.37-.15-2.75-.16-4.13-.23.65,1.21,1.09,2.62,2,3.59,1.7,1.81,3.67,3.36,5.69,5.16-2.9.36-.87,2.19-.95,3.46-.21.1-.43.2-.64.3-.44-.8-1.17-1.56-1.28-2.4-.34-2.64-1.73-4.32-3.96-5.69-1.01-.62-1.99-1.92-2.22-3.06-.86-4.29-3.77-7.41-6.21-10.61-2.66-3.49-9.79-2.43-11.87,1.5-1.81,3.42-3.04,7.16-4.53,10.75-1.18,2.82-2.37,5.64-3.56,8.46-.74,1.75-1.57,3.47-2.23,5.25-1.41,3.8-2.72,7.64-4.17,11.72.51.06,1.14.26,1.71.17,4.84-.78,9.69-1.52,14.5-2.48,1.67-.33,3.27-1.15,4.82-1.91,7.28-3.56,14.78-6.32,22.91-7.31,7.36-.89,13.55,1.91,19.46,5.63,9,5.67,15.55,13.74,18.55,23.72,2.82,9.39,2.46,19.18-4.25,27.44-2.19,2.7-4.96,4.92-7.24,7.55-1.19,1.38-2.18,3.09-2.75,4.82-.71,2.19-.95,4.54-1.31,6.84-.44,2.85.2,3.76,3.05,3.81,3.65.07,7.32-.02,10.97-.25,5.21-.32,10.35-.28,15,2.5,1.25.75,2.54,1.72,3.34,2.91,3.13,4.66,4.13,10.09,5.1,15.49.1.57-.17,1.21-.82,2-.3-.47-.75-.9-.87-1.41-.46-1.85-.96-3.72-1.18-5.61-1.29-11.26-9.89-14.97-19.91-14.53-4.13.18-8.27.36-12.4.4-2.55.03-3.3.89-2.49,3.32,1.17,3.53,5.68,6.02,9.93,5.52,2.06-.24,4.13-.48,6.2-.6.8-.05,1.61.24,2.44.84-2.43.19-4.85.38-7.28.57,0,.22.02.43.03.65,6.27,1.18,12.46-1.38,18.83-.47-.78.16-1.56.32-2.59.53,1.28,1.14,2.48,2.22,3.68,3.29-.09.18-.19.36-.28.54-3.44-1.93-6.75-4.54-11.04-2.08,1.86,1.23,3.79,2.5,5.72,3.77-.12.22-.24.43-.36.65-3.34-1.74-6.68-3.48-10.03-5.22-.14.25-.28.49-.42.74.85,2.66,3.02,3.94,5.55,4.45,3.41.69,6.9,1,10.35,1.5.93.13,1.84.38,2.76.57-.03.23-.06.46-.09.69-1.89-.26-3.78-.52-5.67-.77-.09.27-.19.53-.28.8,2.91,1.32,5.83,2.64,8.74,3.96-.12.25-.24.5-.36.75-5.88-1.58-10.81-5.69-16.96-6.62,3.03,4.03,7.87,4.58,11.94,6.86-1.09-.22-2.19-.42-3.28-.67-5.5-1.26-9.77-4.06-13.02-8.87-1.29-1.91-4.07-2.9-6.29-4.09-2.25-1.2-4.8-1.87-6.94-3.21-2.18-1.36-3.56-3.43-3.2-6.31.26-2.09-1.49-1.85-2.72-1.97-4.89-.46-9.81-.6-14.66-1.33-7.39-1.11-14.67-3.23-22.08-3.79-10.07-.76-19.54-3.79-29.22-6.07-4.07-.96-8.02-.7-12.01.62-3.62,1.19-7.37,2.01-11.06,2.96-3.83.99-6.86,3.15-9.62,5.94-2.97,3.01-6.24,5.74-9.33,8.63-2.06,1.93-4.13,3.86-6.06,5.91-2.01,2.13-2.34,4.62-1.29,7.4,3,7.98,4.17,10.39,4.8,13.61.57,2.93.3,5.1-.22,9.29-.5,4.08-1.27,5.85-2.38,11.79-.56,2.98-.86,5.35-1.06,6.93,0,1.34-.04,3.24-.03,5.4,0,1.37,0,2.74,0,4.1ZM302.57,270.28c.22.13.44.26.66.4,1.41-1.57,2.83-3.14,4.24-4.71,6.95-7.7,10.39-16.7,7.64-26.84-3.91-14.45-13.76-24.05-27.45-29.54-2.93-1.17-6.61-1.3-9.78-.83-4.8.71-9.56,2.07-14.15,3.7-9.52,3.38-18.69,7.92-29.15,7.91-.82,0-1.97.98-2.41,1.8-1.62,2.99-3.27,6.01-4.44,9.19-2.1,5.72-2.89,11.58-.74,17.56,1.24,3.44,2.01,4.16,5.46,2.99,13.52-4.58,25.2-12.24,35.53-21.96,3.82-3.59,7.9-5.56,13.06-3.94,5.52,1.73,6.96,6.82,8.85,11.61-1-.13-1.9-.48-2.35-1.14-1.27-1.84-2.28-3.85-3.51-5.72-2.43-3.68-5.01-3.92-8.9-2.85-1.37.38-2.57,1.47-3.77,2.34-8.48,6.13-16.91,12.32-25.4,18.43-4.58,3.3-9.3,6.4-13.81,9.78-1.48,1.11-2.73,2.71-3.7,4.32-1.97,3.28-1.24,6.87,2.18,8.54,4.44,2.17,9.06,4.35,13.84,5.37,7.94,1.7,16.11,2.33,24.14,3.67,10.96,1.83,20.65-1.56,29.98-6.76,1.81-1.01,2.39-2.45,2.33-4.53-.14-5.11-1.27-9.85-4.13-14.16-.77-1.15-1.06-2.62-1.57-3.94.25-.13.51-.26.76-.39,1.16,1.68,2.43,3.3,3.45,5.06,2.59,4.5,3.21,9.49,3.12,14.63ZM163.69,227.13c0,1.17-.09,1.97.01,2.75.97,7.65,1.9,15.3,2.99,22.94.79,5.52,3.93,9.46,8.93,11.83,6.19,2.93,12.78,3.42,19.48,2.75,1.29-.13,2.67-.52,3.76-1.19,3.75-2.3,7.52-4.61,11.03-7.27,1.87-1.42,3.64-3.31,4.7-5.38,3.04-5.99,2.12-10.37-5.14-11.86-5.04-1.03-10.26-1.36-15.19-2.76-10.4-2.96-21.15-5.13-30.57-11.82ZM244.7,182.23c-1.16.56-1.93.86-2.63,1.27-4,2.34-8.35,3.52-12.89,4.35-4.15.76-8.35,1.65-12.26,3.15-2.67,1.03-5.04,3.04-7.25,4.97-1.47,1.28-1.74,3.24-1.19,5.31.62,2.32.83,4.74,1.38,7.08.21.89.66,2.08,1.35,2.43,3.55,1.79,7.11,3.66,10.86,4.92,6.69,2.25,6.84,2.13,10.14-4.17,2.88-5.51,5.72-11.05,8.21-16.74,1.7-3.89,2.77-8.05,4.28-12.56ZM227.11,219.2c-5.72-2.33-11.03-4.49-17.05-6.94,2.48,9,4.86,17.62,7.24,26.24.21-.05.43-.09.64-.14,3.12-6.53,6.24-13.05,9.16-19.17ZM162.28,251.82c-.04-.9-.07-1.8-.13-2.71-.4-6.61-1.02-13.22-1.13-19.83-.12-7.1-4.67-11.65-8.65-16.64-.12,13.91,2.23,27.17,9.9,39.18ZM109.68,322.79c-.02-.34-.04-.68-.06-1.02-3.09,0-6.27-.47-9.25.09-8.39,1.56-16.75,3.32-25.01,5.47-3.97,1.03-7.67,3.12-11.49,4.72.12.36.24.72.36,1.08,15.73-.83,30.7-5.13,45.46-10.35ZM135.3,206.32c3.76,4.41,5.26,9.13,6.35,14.31,2.18,10.37,4.23,20.85,9.35,30.38.71,1.32,1.29,1.99,2.47,1.3.46-.27.66-1.68.41-2.36-3.48-9.37-6.27-18.92-7.1-28.93-.26-3.1-1.57-5.51-3.7-7.66-1.21-1.23-2.47-2.57-3.16-4.11-.84-1.86-2.07-2.66-4.62-2.94ZM278.4,283.02c0,.22,0,.44,0,.65,6.32.66,12.64,1.35,18.96,1.92.52.05,1.51-.59,1.6-1.04.64-3.15,1.1-6.34,1.68-9.87-6.85,5.1-14.47,6.92-22.24,8.34Z"/>
      <text/>
      <text class="cls-1" transform="translate(191 25.47)"><tspan x="0" y="0">R</tspan></text>
      <text class="cls-1" transform="translate(260 148.47)"><tspan x="0" y="0">H</tspan></text>
      <text class="cls-1" transform="translate(347 316.47)"><tspan x="0" y="0">I</tspan></text>
      <text class="cls-1" transform="translate(220 441.47)"><tspan x="0" y="0">Z</tspan></text>
      <text class="cls-1" transform="translate(0 363.47)"><tspan x="0" y="0">O</tspan></text>
      <text class="cls-1" transform="translate(54 200.47)"><tspan x="0" y="0">M</tspan></text>
    </g>
  </g>
</svg>