<?xml version="1.0" encoding="UTF-8"?>
<svg id="Calque_2" xmlns="http://www.w3.org/2000/svg" viewBox="0 0 349.63 439.27">
  <defs>
    <style>
      .cls-1 {
        fill: none;
        stroke: #000;
      }
    </style>
  </defs>
  <g id="Calque_1-2" data-name="Calque_1">
    <g>
      <path d="M208.15,435.83l-1.53-.15c-1.93-.19-3.76-.72-5.42-1.58-1.18-.61-2.64-1.57-5.29-4.44-2.5-2.7-4.12-5-4.99-6.24-2.56-3.64-5.21-7.39-8.87-13.52-2.09-3.49-3.25-5.53-4.23-7.63-.4-.85-2.42-5.41-3.26-11.67,0-.01-1.24-5.66-1.76-14.73l-.06-1.1c-.1-2.02-.17-3.51-.18-3.76-.07-1.53-.22-4.16-.38-6.75-.14-2.29-.27-4.53-.33-5.92-.21-4.36-.18-8.94.09-13.6.38-3.76.59-6.23.62-7.36,0-.09,0-.43.04-.89.05-.68.16-1.47.35-2.59.48-2.77.75-4.93.94-6.5.1-.79.18-1.46.26-2.02.92-6.06,1.49-10.79.36-16.38-.99-4.9-3.31-8.88-7.12-12.19-3.12-2.71-6.55-2.72-9.18-.04-10.21,10.45-23.48,13-33.9,14.07-8.83.9-18.27,2.15-27.44,5.2-10.61,3.52-22.11,6.91-34.28,7.79-1.74.13-3.5-.06-5.2-.24-.92-.1-1.86-.2-2.79-.25-4.82-.25-8.7,3.3-8.98,8.26-.05.83-.28,2.89-1.41,4.21-2.32,2.69-2.67,5.72-1.09,9.26,1.11,2.48.81,4.69-.93,6.75l-.78.93c-1.7,2.03-3.45,4.12-5.39,5.98-.75.72-1.09,1.25-1.07,1.68.02.42.39.89,1.16,1.48,1.45,1.12,2.22,2.56,2.18,4.05-.05,1.68-1.12,3.32-3.03,4.61l-1.49,1.02.76-1.64c.23-.49.43-.91.6-1.28.33-.69.57-1.21.79-1.74.58-1.43.32-2.27-.91-2.92-1.14-.59-2.18-1.41-3.04-2.37-1.72.2-2.25,1.56-2.93,3.71-.29.93-.6,1.89-1.08,2.77l-.82,1.49-.12-1.7c-.04-.62-.1-1.2-.15-1.74-.13-1.29-.24-2.4-.13-3.52.07-.71.8-1.24,1.45-1.71.14-.1.28-.2.41-.3.97-.77,2-1.5,3-2.21,2.05-1.47,4.18-2.98,5.85-4.81,3.92-4.29,4.23-6.38,1.59-12.62l-.03.02c-.37.22-.74.43-1.11.63-.48.26-.95.55-1.41.84-1.09.68-2.23,1.38-3.48,1.71-2.62.67-4.25,2.23-5.15,4.9-.29.87-.55,1.76-.81,2.64-.42,1.41-.84,2.87-1.4,4.27-.62,1.56-1.37,3.1-2.09,4.59-.46.94-.91,1.88-1.34,2.83-.44.97-.83,1.98-1.21,2.97-.17.45-.35.91-.53,1.36l-.17.43-1.65-.51.1-.45c.04-.19.08-.38.11-.57.08-.44.16-.89.32-1.33.49-1.39.98-2.79,1.47-4.18,1.76-5.03,3.57-10.22,5.53-15.27.5-1.3,1.98-2.27,3.33-3.08,1.43-.86,2.91-1.67,4.35-2.45,1.92-1.05,3.9-2.13,5.74-3.33,2.1-1.37,3.09-3.45,2.97-6.2-.05-1.12.32-2.22.69-3.29.07-.2.13-.39.2-.59-.72.13-1.45.27-2.19.4-2.39.44-4.87.9-7.36,1.28-.66.1-1.32.21-1.99.32-2.6.43-5.3.88-7.97.91-4.58.05-8.35-1.59-10.99-4.77-.4-.49-.31-1.21-.22-1.91.03-.26.07-.52.07-.75v-.62s.61.14.61.14c.21.05.45.07.69.09.65.07,1.32.14,1.7.6,2.73,3.36,5.94,3.85,9.9,3.55.85-.06,1.7-.12,2.55-.18,5.56-.39,10.81-.76,16-2.48.82-.27,1.64-.61,2.44-.93.26-.11.53-.22.79-.32v-.07s-1.71-.04-1.71-.04c-1.76-.05-3.51-.09-5.27-.15-1.01-.04-2.03-.12-3.01-.2l-.37-.03c-.22-.02-.45-.07-.69-.12-.27-.06-.61-.14-.74-.08-1.3.59-2.24.53-3.58-.23-.4-.23-1.07-.13-1.78-.03-.63.09-1.29.19-1.91.08-.65-.11-1.12-.65-1.59-1.17-.17-.2-.34-.39-.52-.55l-.51-.47,1.03-.57c.6-.34,1.21-.67,1.81-1,.28-.15.58-.03.7.03,4.19,2.08,8.52,1.89,13.09,1.67,2.67-.12,5.43-.25,8.13.13.57.08,1.28-.12,1.94-.33,1.13-.36,1.95-.7,2.67-1.1,9.87-5.52,20.89-7.69,31.54-9.78,1.58-.31,3.16-.62,4.74-.94,1.71-.35,3.64-.48,6.07-.43,2.61.06,5.27.21,7.83.36,5.1.29,10.38.6,15.49.18,12.57-1.03,21.82-4.28,29.09-10.21,5-4.08,7.45-9.3,7.49-15.96.02-3.99,1.21-7.75,3.63-11.52,2.35-3.65,1.9-7.29-1.32-10.82-2.46-2.69-5.25-5.09-8.37-7.72-2.16-1.82-4.52-3.48-6.8-5.08l-.57-.4c-3.48-2.45-5.94-5.85-7.51-10.37-2.75-7.89-4.5-16.53-5.53-27.17-.31-3.2-1.78-6.31-3.52-9.76-1.29-2.56-3.58-4.28-6.6-4.96-1.59-.36-3.11-1.03-4.57-1.69-.8-.36-1.63-.73-2.45-1.03-9.85-3.69-19.67-3.08-29.2,1.81-.91.47-1.76,1.09-2.63,1.74-.48.36-.94.77-1.51,1.29-.29.27-.62.56-1,.89l-1.27,1.12.46-1.63c1.3-4.6,8.38-8.04,20-9.74-.85-.75-1.71-1.49-2.56-2.24-2.52-2.19-5.12-4.46-7.57-6.8-3.71-3.53-6.61-7.4-8.63-11.51l-.17-.35,1.17-.97.32.37c.17.2.35.39.52.58.4.43.8.88,1.14,1.38,4.32,6.5,9.39,11.85,15.07,15.91,2.54,1.81,5.65,3,8.08,3.84,3.17,1.09,6.46,2.01,9.64,2.9,1.38.39,2.76.77,4.14,1.17l1.42.42-.72-1.08c-1.1-1.64-2.14-3.21-3.17-4.77-3.58-5.41-4.85-11.64-5.75-17.06-.09-.56.05-1.12.19-1.65.06-.21.11-.43.15-.64l.16-.88.67.6c.21.19.45.36.7.54.63.45,1.27.91,1.49,1.6.37,1.2.61,2.45.85,3.66.22,1.12.44,2.28.77,3.37,1.62,5.45,4.48,10.65,8.75,15.89,1.29,1.58,2.82,2.37,4.91,2.49-2.85-4.57-4.69-9.09-5.77-14.16l-.14-.68.69.08c2.6.29,3.98,1.37,4.76,3.76,1.13,3.45,2.63,6.74,4.08,9.79.82,1.72,2.49,2.16,4.25,2.63.62.16,1.25.33,1.85.56.3-.29.78-.98.78-1.23-.02-1.62-.14-3.27-.26-4.87-.09-1.19-.17-2.38-.23-3.58-.1-2.33-1.21-4.35-3.29-6-8.96-7.07-16.58-16.04-24.73-29.06-1.23-1.97-3.27-3.53-5.24-5.04-.91-.7-1.85-1.42-2.71-2.18-.44-.39-.9-.76-1.36-1.13l-.98-.8.77-1.35.42.21c.2.1.4.18.6.27.48.21.98.42,1.41.77,6.14,5.02,11.18,9.32,15.38,15.22,3.44,4.83,7.89,9.1,12.2,13.22,1.85,1.77,3.76,3.6,5.57,5.46.12.12.35.24.64.32.03,0,.13-.01.22-.02-.08-.25-.16-.5-.24-.74-.34-1.03-.66-2-.83-3.04,0-.03-.36-2.78.67-3.2,1-.4,1.99-.41,2.78-.04.71.33,1.24.97,1.52,1.84.61,1.91.96,3.49,1.09,4.96.56,6.52,1.03,12.89,1.4,18.93.2,3.32,1.28,5.84,3.4,7.92.93.92,1.69,1.98,2.49,3.1.05.07.11.15.16.22l-.18-3.29c-.23-4.17-.46-8.24-.67-12.31l-.02-.36c-.04-.58-.08-1.19.07-1.78.11-.45.43-.79.71-1.1.11-.11.21-.23.3-.34l.31-.4.4.31c.13.1.29.2.45.3.43.27.92.57,1.08,1.07.22.68.23,1.4.25,2.1,0,.25.01.5.03.74l1.09,17.92c.25,4,3.19,6.11,6.03,8.16,1.36.98,2.97,1.75,4.53,2.18,2.57.71,5.16,1.53,7.65,2.33,2.65.84,5.38,1.71,8.11,2.45,3.73,1.01,7.55,1.3,11.25,1.59,2.67.21,5.43.42,8.14.9,1.2.21,2.36.5,3.7.84.39.1.79.2,1.22.3-.04-.12-.07-.25-.11-.36-.2-.69-.38-1.28-.6-1.83-2.89-7.17-4.68-14.78-5.31-22.64v-.13c-.05-.5-.09-1.02-.26-1.44-3.3-8.14-3.89-16.81-4.46-25.21-.08-1.11-.15-2.23-.23-3.34-.21-2.89-.65-5.83-1.08-8.66-.29-1.93-.59-3.92-.82-5.88-.71-6.11-1.33-14.2.13-22.51.5-2.83.3-5.86.12-8.78-.26-4.12-.58-8.24-.89-12.23-.37-4.76-.75-9.68-1.03-14.52-.89-15.49.34-28.89,3.77-40.96.15-.52.17-1.1.18-1.7.01-.47.03-.96.11-1.44.13-.81.35-1.61.51-2.19.04-.15.08-.29.11-.41-.21-.79-.48-1.58-.75-2.35-.63-1.83-1.23-3.56-1.03-5.27.64-5.44-.13-10.31-2.35-14.9-.49-1.02-.57-2.25-.64-3.34-.03-.48.22-.9.45-1.27.08-.13.16-.27.23-.4l.25-.54.49.35c.14.1.3.19.46.28.44.24.95.52,1.12,1.01,1.23,3.47,2.23,6.36,3.04,9.43.36,1.38.45,3.05.25,4.83-.34,3.06-.53,6.3,1.21,9.4.58,1.03.77,2.59.52,4.16-.65,4.03-1.41,8.11-2.14,12.05-.27,1.46-.54,2.92-.81,4.38-2.18,11.93-2.42,23.75-.72,35.13,1.96,13.08,2.29,27.27,1.07,44.67-.26,3.7.35,7.55.93,11.27.27,1.71.55,3.48.74,5.22.58,5.2,1.16,10.39,1.74,15.59.05.43.1.86.16,1.29l.04.31.23.16c.16-.21.31-.43.46-.65.56-.81,1.14-1.64,1.9-2.29.25-.22.51-.44.76-.66,1.44-1.26,2.93-2.57,4.67-3.05,5.35-1.49,10.83-2.68,16.31-3.55,5.99-.95,11.19-3.38,14.62-6.83,5.42-5.45,8.36-11.38,8.75-17.63.07-1.1.17-3.14,2.74-3,.85.05,1.44.3,1.8.77.58.75.38,1.79.21,2.71-.92,4.83-2.89,9.53-6.02,14.34-.24.37-.46.76-.75,1.28-.03.05-.05.1-.08.15.96-.13,1.91-.22,2.83-.32,3.81-.39,7.42-.75,10.47-3.23-.13-.37-.35-.76-.58-1.17-.79-1.41-1.77-3.17.64-5.12l.67-.55.62,3.98,2.87-.43-.09.66c-.59,4.28-3.79,5.44-6.61,6.47-.77.28-1.5.55-2.19.86.47.68.93,1.36,1.39,2.03,1.44,2.13,2.81,4.13,4.34,6.04.47.58,1.52.88,2.45,1.15.21.06.43.12.63.19.33.1.72.09,1.14.07.32-.01.66-.03.99.01,2.75.31,4.68-.26,6.24-1.84.86-.88,2.11-1.28,3.23-1.57l1.23-.31-1.26,1.96h4.97l.13,1.49-11.86,2.04-.07.29,10.51,4.63h1.79l-.88,1.49-1.12-.49h-1.85l5.64,2.4-3.75,1.55-2.93-2.04c-2.96-2.06-5.97-4.16-8.98-6.25l-.2-.14c-.31-.22-.62-.45-.88-.48-.96-.11-1.96-.14-2.93-.18-.11,0-.22,0-.32-.01.07.14.13.28.2.42.4.86.77,1.68,1.34,2.29,1.17,1.25,2.48,2.37,3.86,3.56.59.51,1.2,1.03,1.8,1.57l.82.73-1.09.14c-.83.1-1.03.32-1.09.4-.13.22.06.71.23,1.14.18.47.38.97.35,1.46l-.02.3-1.33.63-.23-.41c-.13-.24-.29-.47-.45-.71-.39-.58-.8-1.18-.89-1.87-.29-2.31-1.41-3.9-3.72-5.33-1.17-.72-2.2-2.15-2.45-3.39-.7-3.51-2.87-6.27-4.97-8.93-.39-.49-.78-.98-1.15-1.48-1.04-1.37-3-2.07-5.24-1.89-2.56.21-4.84,1.51-5.79,3.32-1.23,2.31-2.2,4.83-3.14,7.26-.45,1.16-.9,2.31-1.37,3.45-1.18,2.83-2.37,5.64-3.56,8.46-.25.6-.52,1.2-.78,1.79-.5,1.12-1.01,2.28-1.44,3.44-.99,2.68-1.93,5.34-2.92,8.17l-1.05,2.99c.33.06.67.12.96.07l2.15-.34c4.05-.65,8.24-1.32,12.33-2.13,1.5-.3,2.99-1.03,4.42-1.73l.28-.14c8.46-4.14,15.79-6.47,23.07-7.36,7.93-.96,14.45,2.35,19.78,5.71,9.32,5.88,15.81,14.18,18.76,24,3.28,10.92,1.82,20.31-4.34,27.9-1.2,1.48-2.58,2.82-3.92,4.13-1.13,1.1-2.3,2.24-3.33,3.44-1.17,1.36-2.11,3.01-2.65,4.65-.56,1.73-.83,3.61-1.09,5.43-.06.45-.13.89-.19,1.33-.21,1.37-.14,2.17.21,2.6.35.41,1.07.61,2.35.63,3.52.07,7.2-.01,10.92-.24,4.82-.3,10.36-.37,15.29,2.57,1.6.95,2.77,1.98,3.49,3.06,3.21,4.79,4.21,10.33,5.18,15.68.13.72-.17,1.49-.93,2.41l-.44.53-.37-.58c-.09-.14-.19-.27-.29-.4-.25-.33-.54-.71-.65-1.16l-.16-.65c-.41-1.63-.83-3.32-1.02-5.02-.64-5.55-4.02-14.77-19.39-14.08-3.82.17-8.16.36-12.42.4-1.16.01-1.86.2-2.13.59-.26.37-.23,1.05.11,2.07,1.09,3.28,5.4,5.66,9.4,5.18,2.2-.26,4.19-.48,6.23-.6.91-.05,1.84.26,2.76.93l1.1.8-7.02.55c2.64.26,5.27-.06,8.03-.4,3.01-.36,6.12-.74,9.26-.29l2.85.41-4.44.91,3.23,2.89-.7,1.34-.45-.25c-.41-.23-.81-.47-1.22-.7-2.77-1.62-5.4-3.16-8.59-1.75l5.39,3.55-.62,1.11c.55.07,1.09.14,1.63.21,1.17.15,2.33.3,3.5.47.66.1,1.3.24,1.93.39.29.06.57.13.86.19l.45.1-.22,1.65-5.69-.78,8.72,3.95-.76,1.59-.4-.11c-2.65-.71-5.12-1.94-7.52-3.12-2.55-1.26-5.17-2.55-7.98-3.22,1.85,1.86,4.2,2.79,6.66,3.76,1.4.55,2.85,1.13,4.2,1.89l2.8,1.57-4.18-.85c-.75-.15-1.51-.3-2.25-.47-5.72-1.31-10.08-4.28-13.33-9.08-.93-1.38-2.79-2.28-4.58-3.15-.53-.26-1.04-.51-1.54-.77-.96-.51-2-.94-3.01-1.35-1.34-.54-2.72-1.11-3.96-1.89-2.6-1.62-3.78-3.97-3.43-6.8.06-.46,0-.79-.16-.98-.27-.33-.93-.36-1.57-.39-.19,0-.37-.02-.55-.04-1.73-.16-3.46-.29-5.19-.41-3.12-.22-6.35-.45-9.5-.92-2.92-.44-5.87-1.04-8.72-1.63-4.36-.89-8.86-1.82-13.32-2.16-7.63-.58-15.03-2.47-22.18-4.31-2.33-.6-4.74-1.21-7.12-1.78-3.88-.92-7.72-.72-11.74.6-2.68.88-5.46,1.57-8.15,2.24-.98.24-1.97.49-2.94.74-3.35.86-6.33,2.71-9.39,5.81-1.89,1.92-3.93,3.75-5.9,5.52-1.16,1.04-2.31,2.07-3.44,3.13-1.9,1.77-4.05,3.78-6.04,5.89-1.82,1.93-2.21,4.18-1.19,6.88.82,2.19,1.51,3.95,2.08,5.43,1.52,3.91,2.28,5.87,2.74,8.25.58,3.01.3,5.3-.21,9.45-.29,2.3-.65,3.87-1.12,5.85-.37,1.57-.78,3.36-1.27,5.97-.54,2.9-.84,5.25-1.04,6.81v.1c0,.56-.01,1.31-.02,2.16,0,.96-.02,2.03-.02,3.18v4.11c-.1,5.95-.18,14.93-.03,23.92.06,3.74.27,7.54.62,11.28.28,2.96.58,5.19,1.01,7.45.44,2.33,1.01,4.65,1.6,6.55.47,1.52.93,2.69,1.85,5.03.74,1.88,1.5,3.69,2.65,5.06.21.25.71.85,1.53,1.46l.2.19c.2.17.62.49,1.19.66,1.29.38,3.55.44,5.54.5.72.02,1.42.04,2.04.07,1.54.08,2.99.16,4.85.73,1.74.53,3,1.24,3.6,1.61,1.73,1.08,2.8,2.27,3.66,3.23.76.85,1.46,1.76,2.09,2.72l1.54,2.35-2.25-1.67c-.82-.61-1.67-1.18-2.54-1.69-4.62-2.75-8.93-3.58-11.78-4.14-2.14-.41-4.34-.69-6.54-.81,1.11,1.59,2.27,3.17,3.44,4.69,5.16,6.72,11.02,13.01,17.43,18.69l1.15,1.02ZM162.59,293.78c1.82,0,3.7.76,5.46,2.28,3.92,3.41,6.42,7.7,7.44,12.75,1.16,5.75.58,10.56-.36,16.72-.08.56-.17,1.21-.26,1.99-.19,1.58-.46,3.75-.95,6.55-.19,1.08-.29,1.84-.34,2.49-.03.43-.04.75-.04.84-.03,1.17-.24,3.6-.62,7.42-.26,4.6-.29,9.15-.08,13.47.07,1.39.2,3.63.33,5.91.15,2.59.31,5.23.38,6.76.01.25.08,1.74.18,3.76l.06,1.09c.51,8.98,1.73,14.56,1.74,14.61.83,6.16,2.8,10.6,3.18,11.43.96,2.07,2.12,4.08,4.18,7.54,3.64,6.09,6.28,9.84,8.83,13.46.86,1.22,2.46,3.48,4.91,6.14,2.55,2.75,3.92,3.66,5.02,4.23,1.08.55,2.23.96,3.43,1.22-5.97-5.42-11.45-11.37-16.31-17.71-1.38-1.8-2.74-3.68-4.04-5.56l-.56-.82.99.04c2.59.09,5.19.39,7.7.88,2.92.57,7.34,1.42,12.11,4.26.04.03.09.05.14.08-.07-.08-.15-.17-.22-.25-.82-.91-1.84-2.05-3.45-3.05-.56-.35-1.73-1.01-3.36-1.5-1.75-.53-3.14-.61-4.61-.68-.61-.03-1.3-.05-2.01-.07-2.06-.05-4.39-.12-5.8-.54-1.08-.32-1.75-1.03-1.77-1.06-.85-.62-1.42-1.3-1.64-1.56-1.24-1.49-2.04-3.37-2.81-5.33-.93-2.36-1.4-3.55-1.88-5.1-.6-1.93-1.18-4.3-1.62-6.66-.43-2.3-.74-4.55-1.02-7.54-.35-3.77-.56-7.6-.63-11.36-.15-9-.07-17.99.03-23.95v-4.1c0-1.15.01-2.23.02-3.19,0-.84.02-1.59.01-2.21l.02-.17c.2-1.56.51-3.93,1.05-6.86.49-2.64.91-4.43,1.28-6.02.46-1.95.82-3.5,1.1-5.75.52-4.18.78-6.28.22-9.14-.44-2.29-1.19-4.23-2.69-8.08-.58-1.48-1.26-3.25-2.08-5.44-1.15-3.06-.68-5.72,1.4-7.92,2.01-2.13,4.18-4.15,6.09-5.94,1.14-1.06,2.3-2.1,3.46-3.15,1.96-1.76,3.99-3.58,5.86-5.47,3.19-3.23,6.32-5.16,9.85-6.07.98-.25,1.97-.5,2.95-.74,2.67-.66,5.44-1.34,8.08-2.21,4.19-1.39,8.21-1.59,12.28-.63,2.39.56,4.8,1.18,7.13,1.78,7.11,1.82,14.47,3.71,22.01,4.28,4.52.34,9.06,1.27,13.45,2.17,2.84.58,5.77,1.19,8.67,1.62,3.11.47,6.32.7,9.42.92,1.74.12,3.48.25,5.21.41.16.02.33.02.51.03.81.04,1.73.09,2.28.75.35.42.47.99.38,1.75-.31,2.44.69,4.4,2.97,5.82.55.34,1.14.65,1.74.92-1.77-1.06-3.16-2.6-3.75-4.4-.45-1.37-.45-2.31.02-2.97.48-.68,1.39-.99,2.93-1,4.25-.04,8.57-.23,12.39-.4,12.01-.53,19.26,4.78,20.43,14.97.19,1.64.6,3.29,1,4.89l.16.66c.05.22.21.45.39.69.27-.42.38-.78.33-1.07-.95-5.25-1.93-10.68-5.03-15.3-.64-.96-1.71-1.88-3.18-2.76-4.68-2.79-9.84-2.73-14.71-2.43-3.75.23-7.46.31-11.01.25-1.61-.03-2.54-.33-3.09-.99-.57-.67-.7-1.69-.44-3.4.07-.44.13-.88.19-1.32.27-1.86.54-3.79,1.13-5.6.58-1.76,1.59-3.54,2.84-4.99,1.07-1.23,2.25-2.38,3.39-3.5,1.32-1.28,2.68-2.61,3.84-4.04,5.94-7.32,7.34-16.4,4.16-26.98-2.88-9.59-9.22-17.7-18.34-23.44-5.18-3.27-11.52-6.48-19.13-5.56-7.16.87-14.39,3.18-22.75,7.26l-.28.14c-1.49.73-3.03,1.49-4.67,1.81-4.1.82-8.3,1.49-12.37,2.14l-2.15.34c-.48.07-.96-.01-1.38-.09-.16-.03-.32-.06-.46-.08l-.63-.07,1.46-4.14c.99-2.83,1.93-5.49,2.92-8.18.44-1.19.96-2.36,1.46-3.49.26-.59.52-1.18.78-1.78,1.19-2.82,2.38-5.63,3.56-8.46.47-1.13.92-2.28,1.36-3.43.95-2.46,1.94-5,3.19-7.37,1.11-2.1,3.7-3.61,6.6-3.85,2.58-.21,4.87.64,6.12,2.28.37.49.76.98,1.14,1.46,2.17,2.75,4.42,5.6,5.17,9.35.19.96,1.07,2.16,1.99,2.73,2.56,1.58,3.86,3.45,4.19,6.05.06.46.38.93.72,1.44.03.05.07.1.1.15-.05-.16-.12-.33-.18-.49-.25-.65-.54-1.38-.16-2.01.17-.28.44-.5.83-.65-.36-.31-.71-.62-1.07-.92-1.4-1.21-2.73-2.35-3.94-3.63-.68-.73-1.11-1.66-1.52-2.55-.18-.39-.35-.77-.55-1.14l-.42-.78.88.04c.39.02.77.03,1.16.05.98.04,2,.07,3,.18.52.06.96.38,1.36.66l.05.04.34-1.37c-.7.03-1.36-.02-1.93-.08-.26-.03-.55-.02-.84,0-.49.02-.99.04-1.48-.12-.2-.06-.4-.12-.61-.18-1.07-.31-2.28-.66-2.95-1.48-1.56-1.94-2.93-3.96-4.39-6.1-.56-.83-1.13-1.66-1.71-2.5l-.32-.46.5-.27c.88-.47,1.87-.83,2.82-1.17,2.63-.95,5.12-1.86,5.84-5l-2.5.38-.49-3.15c-.9,1.12-.37,2.06.27,3.21.3.55.62,1.11.76,1.71l.07.3-.23.2c-3.34,2.87-7.19,3.26-11.27,3.67-1.24.13-2.52.25-3.79.46l-1.04.17.53-.91c.23-.4.42-.73.58-1.03.3-.54.53-.94.78-1.33,3.06-4.71,4.98-9.28,5.88-13.99.14-.71.29-1.52-.01-1.91-.17-.22-.54-.35-1.07-.39-1.31-.08-1.58.47-1.68,2.06-.41,6.49-3.45,12.64-9.04,18.27-1.05,1.06-2.25,2.02-3.59,2.88.26-.12.54-.25.85-.4l1.07-.51-.38,1.12c-.48,1.43-.91,2.81-1.33,4.17-.92,2.96-1.79,5.75-2.97,8.43-2.6,5.95-5.61,11.78-8.23,16.77-3.44,6.57-3.84,6.74-10.74,4.41-3.42-1.15-6.71-2.82-9.89-4.43l-1.03-.52c-.99-.5-1.46-2.1-1.61-2.76-.25-1.07-.43-2.17-.61-3.23-.21-1.27-.43-2.58-.76-3.83-.65-2.43-.17-4.49,1.34-5.81,2.48-2.16,4.75-4.04,7.4-5.06,3.99-1.54,8.29-2.44,12.35-3.18,2.68-.49,5.95-1.21,9.22-2.56-1.95.72-4.05,1.26-6.25,1.61-5.44.86-10.89,2.05-16.2,3.53-1.53.42-2.93,1.65-4.28,2.84-.26.23-.52.45-.77.67-.66.56-1.18,1.31-1.73,2.1-.25.36-.5.72-.77,1.07l-.29.37-1.39-.94-.09-.76c-.05-.44-.11-.87-.16-1.31-.58-5.2-1.16-10.39-1.74-15.59-.19-1.72-.47-3.48-.74-5.18-.6-3.78-1.21-7.69-.95-11.5,1.22-17.32.88-31.44-1.06-44.45-1.72-11.48-1.47-23.41.72-35.45.27-1.46.54-2.92.81-4.38.73-3.94,1.49-8.01,2.13-12.02.17-1.05.15-2.53-.4-3.52-1.88-3.36-1.69-6.78-1.33-10,.19-1.67.11-3.21-.22-4.47-.8-3.03-1.8-5.91-3.02-9.35-.05-.13-.42-.34-.66-.47-.03-.02-.06-.03-.09-.05,0,0,0,0,0,0-.15.25-.32.53-.31.69.07,1.05.14,2.13.55,2.98,2.31,4.76,3.11,9.82,2.45,15.45-.17,1.49.39,3.11.98,4.83.28.82.58,1.68.8,2.55l.03.12-.03.12c-.04.15-.09.34-.15.55-.15.56-.37,1.33-.49,2.09-.07.42-.08.85-.09,1.31-.02.64-.04,1.31-.22,1.95-3.4,11.96-4.62,25.25-3.74,40.62.28,4.84.66,9.75,1.03,14.5.31,3.99.63,8.12.89,12.18.19,3.04.39,6.13-.13,9.08-1.43,8.19-.82,16.18-.12,22.23.22,1.95.52,3.93.81,5.85.43,2.86.88,5.81,1.09,8.74.08,1.12.16,2.23.23,3.35.56,8.31,1.14,16.91,4.39,24.9.23.56.28,1.18.32,1.74v.12c.63,7.76,2.39,15.27,5.25,22.35.24.59.42,1.21.63,1.92.11.36.22.76.36,1.19l.27.84-.86-.2c-.74-.18-1.43-.35-2.08-.51-1.32-.33-2.46-.62-3.62-.83-2.66-.47-5.4-.68-8.04-.89-3.75-.29-7.62-.59-11.44-1.62-2.75-.74-5.49-1.62-8.15-2.46-2.49-.79-5.06-1.61-7.61-2.32-1.67-.46-3.4-1.29-4.85-2.34-2.89-2.08-6.17-4.44-6.44-8.91l-1.09-17.92c-.02-.26-.02-.52-.03-.78-.01-.65-.03-1.27-.2-1.82-.05-.15-.4-.36-.65-.52-.05-.03-.09-.06-.14-.09-.02.02-.03.03-.05.05-.21.23-.43.47-.48.67-.11.43-.08.93-.04,1.46l.02.38c.22,4.07.44,8.14.67,12.31l.36,6.58-.98-1.29c-.41-.54-.8-1.07-1.17-1.59-.78-1.09-1.51-2.11-2.38-2.97-2.3-2.27-3.48-4.99-3.7-8.58-.37-6.03-.84-12.39-1.4-18.9-.12-1.4-.45-2.91-1.04-4.74-.2-.61-.53-1.03-.99-1.25-.52-.25-1.2-.23-1.92.04-.14.26-.25,1.33-.12,2.13.16.96.46,1.89.79,2.89.14.43.29.87.42,1.32l.17.58-.6.06c-.19.02-.34.04-.46.07-.28.04-.5.08-.74,0-.47-.14-.83-.33-1.07-.58-1.8-1.84-3.7-3.67-5.55-5.43-4.34-4.16-8.82-8.46-12.32-13.36-2.42-3.4-5.13-6.26-8.18-9.06.59.61,1.12,1.27,1.56,1.98,8.08,12.93,15.64,21.81,24.5,28.81,2.33,1.84,3.56,4.11,3.68,6.74.05,1.18.14,2.36.22,3.55.12,1.61.24,3.28.26,4.93,0,.77-.94,1.9-1.34,2.17-.25.17-.45.14-.58.09-.61-.25-1.27-.42-1.96-.61-1.82-.48-3.88-1.02-4.9-3.16-1.47-3.08-2.98-6.4-4.13-9.91-.59-1.8-1.46-2.64-3.22-2.97,1.13,4.95,3.04,9.39,5.97,13.9l.49.75-.89.02c-2.83.06-4.96-.84-6.61-2.87-4.35-5.34-7.28-10.66-8.94-16.24-.34-1.14-.57-2.32-.79-3.47-.23-1.18-.46-2.4-.82-3.55-.12-.37-.62-.73-1.12-1.09-.05-.03-.1-.07-.14-.1-.11.43-.21.83-.16,1.17.89,5.31,2.13,11.42,5.6,16.67,1.04,1.56,2.08,3.12,3.17,4.77l2.25,3.37-4.05-1.19c-1.36-.4-2.73-.78-4.1-1.16.42.18.83.36,1.24.55,1.42.63,2.89,1.29,4.39,1.62,3.32.75,5.84,2.64,7.27,5.48,1.38,2.73,3.27,6.47,3.62,10.12,1.01,10.56,2.75,19.11,5.48,26.93,1.5,4.32,3.84,7.55,7.14,9.88l.57.4c2.3,1.62,4.68,3.29,6.87,5.14,3.15,2.65,5.97,5.08,8.47,7.81,3.52,3.85,4.02,8.02,1.43,12.04-2.32,3.6-3.46,7.19-3.48,10.98-.04,6.88-2.68,12.51-7.86,16.73-7.44,6.07-16.86,9.38-29.64,10.43-5.18.43-10.49.12-15.63-.18-2.56-.15-5.21-.3-7.8-.36-2.35-.05-4.21.08-5.85.41-1.58.32-3.16.63-4.75.94-10.58,2.08-21.51,4.23-31.25,9.67-.78.43-1.66.8-2.85,1.18-.78.25-1.6.48-2.39.37-2.6-.37-5.32-.24-7.94-.12-4.48.21-9.11.42-13.51-1.74-.5.27-1,.55-1.5.83.04.05.08.09.12.14.33.37.7.79,1,.84.47.08,1.04,0,1.6-.08.84-.12,1.72-.25,2.41.15,1.06.6,1.68.64,2.67.19.44-.2.94-.08,1.38.02.18.04.37.09.54.1l.37.03c.97.08,1.98.16,2.96.2,1.75.06,3.51.11,5.26.15l2.59.07.16,1.7-.35.14c-.38.15-.75.3-1.13.45-.81.33-1.65.67-2.5.95-5.31,1.76-10.87,2.15-16.25,2.53-.85.06-1.69.12-2.54.18-5.06.39-8.18-.75-10.75-3.91-.12-.15-.67-.2-1.03-.24-.08,0-.16-.02-.24-.02-.01.1-.02.2-.04.3-.05.39-.13.99,0,1.14,2.45,2.94,5.99,4.46,10.21,4.41,2.6-.03,5.25-.47,7.82-.9.67-.11,1.33-.22,2-.32,2.48-.39,4.94-.84,7.33-1.28,1.02-.19,2.02-.37,3-.55l.77-.14-.2.76c-.12.47-.28.94-.45,1.42-.35,1.02-.68,1.99-.63,2.92.15,3.08-1.04,5.54-3.42,7.09-1.88,1.22-3.88,2.31-5.81,3.37-1.43.78-2.9,1.58-4.31,2.43-1.2.73-2.52,1.58-2.91,2.59-1.95,5.04-3.76,10.22-5.51,15.24-.49,1.4-.98,2.79-1.47,4.19-.08.23-.14.47-.19.72.04-.12.09-.23.13-.35.38-1,.78-2.02,1.23-3.02.43-.96.89-1.91,1.36-2.85.71-1.47,1.45-2.99,2.06-4.52.54-1.35.96-2.79,1.37-4.18.26-.9.53-1.79.82-2.68,1-2.98,2.91-4.8,5.85-5.55,1.1-.28,2.12-.92,3.2-1.59.49-.3.97-.6,1.46-.87.36-.2.72-.4,1.08-.62l1.01-.58.22.51c2.84,6.58,2.99,9.24-1.55,14.21-1.75,1.91-3.91,3.46-6.01,4.95-.99.7-2.01,1.43-2.96,2.19-.13.11-.28.21-.44.33-.38.28-1.01.74-1.04.99-.09.95,0,1.94.1,3.08.09-.26.17-.52.25-.78.67-2.11,1.37-4.29,4.07-4.43h.25s.16.18.16.18c.8.94,1.81,1.75,2.91,2.32,1.71.89,2.16,2.26,1.38,4.18-.09.23-.19.46-.3.69.47-.67.72-1.37.74-2.06.04-1.18-.58-2.3-1.79-3.23-1.03-.8-1.51-1.48-1.55-2.22-.04-.76.37-1.49,1.37-2.45,1.9-1.82,3.63-3.89,5.31-5.9l.78-.93c1.5-1.79,1.75-3.54.78-5.7-1.74-3.87-1.32-7.34,1.24-10.32.65-.75,1.08-2.1,1.17-3.61.31-5.53,4.6-9.48,10.03-9.21.95.05,1.91.15,2.84.25,1.66.18,3.38.36,5.03.24,12.05-.87,23.48-4.23,34.03-7.74,9.26-3.07,18.76-4.34,27.65-5.25,10.26-1.05,23.31-3.56,33.29-13.77,1.5-1.54,3.26-2.3,5.09-2.3ZM311.43,293.12l1.21.18c3.5.53,6.64,2.08,9.67,3.58,2,.99,4.06,2.01,6.2,2.71l-8-3.63.53-1.49c-.06,0-.11-.01-.17-.02-2.27-.29-4.61-.58-6.9-1.04-3.12-.63-5.12-2.24-5.93-4.79l-.07-.21.49-.87c-1.18,0-2.37-.1-3.56-.32l-.39-.07-.06-1.47c-.26.03-.52.06-.78.09-1.34.16-2.69.04-3.96-.3.82.34,1.64.69,2.42,1.11.48.26.99.5,1.5.75,1.91.93,3.88,1.89,4.97,3.49,2.76,4.09,6.37,6.78,11,8.21-2.72-1.08-5.46-2.29-7.45-4.94l-.74-.98ZM309.07,288.52c.74,2.06,2.46,3.37,5.11,3.91,1.3.26,2.63.47,3.95.66l-8.99-4.68-.07.12ZM309.62,287.53l7.36,3.84-4.33-2.85.71-.4c3.81-2.18,6.87-.64,9.81,1.07l-2.92-2.61c-1.84.04-3.68.26-5.48.48-1.69.21-3.42.41-5.15.48ZM309.98,285.17s-.09,0-.14,0c-1.19.07-2.37.17-3.58.3l3.88-.3c-.05,0-.11,0-.16,0ZM236.69,171.46s-.02,0-.03.01c-.6.28-1.07.49-1.52.75-4.46,2.61-9.32,3.72-13.05,4.41-4.01.73-8.26,1.62-12.17,3.13-2.5.96-4.69,2.78-7.1,4.88-1.55,1.35-1.42,3.36-1.03,4.8.35,1.29.57,2.63.78,3.92.17,1.05.35,2.13.6,3.17.25,1.05.68,1.89,1.09,2.1l1.03.52c3.15,1.6,6.41,3.25,9.76,4.38q6.36,2.14,9.53-3.93c2.61-4.98,5.61-10.8,8.2-16.71,1.15-2.63,2.01-5.4,2.93-8.33.31-1.01.64-2.04.98-3.09ZM93.78,180.55c1,.89,2.01,1.76,3,2.63,1.12.98,2.25,1.96,3.38,2.96l.82.72-1.08.15c-9.07,1.21-15.55,3.5-18.55,6.47.02-.01.04-.03.06-.04.9-.68,1.79-1.32,2.77-1.83,7.55-3.87,15.27-5.13,23.05-3.77-.5-.16-1-.33-1.5-.5-2.49-.86-5.69-2.08-8.33-3.97-1.23-.88-2.43-1.82-3.61-2.82ZM275.39,184.41c.26.18.51.36.77.54l2.48,1.73,1.05-.43-4.3-1.83ZM267.91,179.2c2.44,1.69,4.87,3.39,7.28,5.06l.39-1.42h.62l-8.29-3.65ZM81.45,166.4c1.93,3.55,4.54,6.91,7.79,10,.78.75,1.58,1.48,2.39,2.22-3.49-3.29-6.69-7.11-9.56-11.43-.18-.27-.39-.53-.62-.79ZM273.99,174.11c-.56.22-1.09.5-1.48.9-.69.7-1.43,1.2-2.17,1.54l6.71-1.16h-3.88l.82-1.28ZM103.87,141.32c.35.29.71.58,1.05.88.84.74,1.76,1.45,2.66,2.14.38.29.77.59,1.15.89-1.35-1.16-2.77-2.32-4.25-3.53-.18-.15-.39-.26-.61-.37ZM56.7,321.95l-.62-1.88.43-.18c1.18-.5,2.38-1.05,3.54-1.59,2.58-1.2,5.25-2.44,8.02-3.16,7.48-1.95,15.43-3.69,25.04-5.48,2.11-.39,4.31-.29,6.45-.19.96.04,1.94.09,2.9.09h.47l.11,1.84-.35.16c-13.1,4.63-28.75,9.49-45.6,10.37l-.38.02ZM57.31,320.62l.09.28c16.42-.92,31.72-5.64,44.58-10.17v-.18c-.84-.01-1.67-.05-2.49-.09-2.08-.1-4.22-.2-6.22.17-9.58,1.79-17.52,3.52-24.97,5.46-2.69.7-5.32,1.92-7.86,3.1-1.03.48-2.08.97-3.14,1.42ZM290.23,274.38s-.06,0-.09,0c-5.02-.46-10.12-.99-15.05-1.51l-4.37-.46v-1.52s.42-.07.42-.07c7.35-1.34,15.1-3.09,22.03-8.25l.99-.74-.2,1.22c-.14.88-.28,1.74-.42,2.58-.4,2.54-.79,4.93-1.27,7.31-.15.71-1.32,1.44-2.05,1.44ZM272.46,271.58l2.74.29c4.93.52,10.02,1.05,15.03,1.51.29.04.99-.44,1.07-.65.48-2.35.86-4.73,1.26-7.26.07-.46.15-.93.22-1.4-6.48,4.49-13.55,6.23-20.33,7.51ZM267.52,269.66c-2.05,0-4.09-.17-6.14-.52-3.2-.54-6.48-.97-9.65-1.38-4.78-.63-9.72-1.27-14.51-2.3-4.72-1.01-9.29-3.14-13.96-5.41-1.68-.82-2.82-2.11-3.3-3.71-.51-1.74-.19-3.7.91-5.53,1.16-1.93,2.45-3.43,3.82-4.46,2.68-2.01,5.47-3.95,8.17-5.82,1.89-1.31,3.78-2.62,5.64-3.96,4.83-3.48,9.65-6.99,14.47-10.5,3.64-2.65,7.28-5.3,10.93-7.93.25-.18.5-.37.75-.56.99-.75,2.01-1.53,3.18-1.85,3.88-1.07,6.81-.93,9.45,3.06.58.88,1.12,1.8,1.64,2.69.59,1.01,1.2,2.05,1.87,3.03.22.31.61.56,1.14.74-.07-.18-.13-.35-.2-.53-1.66-4.34-3.23-8.43-7.99-9.92-4.41-1.38-8.29-.2-12.57,3.83-11.15,10.49-22.84,17.71-35.71,22.07-3.77,1.28-4.78.35-6.09-3.29-1.97-5.48-1.73-11.17.74-17.91,1.17-3.19,2.82-6.23,4.42-9.17.57-1.05,1.87-2.14,2.89-2.14h0c8.23,0,15.83-2.91,23.18-5.72,1.89-.72,3.85-1.47,5.79-2.16,5.22-1.86,9.88-3.08,14.24-3.72,3.66-.54,7.32-.23,10.04.86,14.64,5.87,23.97,15.92,27.75,29.87,2.59,9.56-.02,18.75-7.76,27.31l-4.52,5.01-1.26-.76v-.29c.11-6.1-.83-10.53-3.05-14.37-.68-1.19-1.51-2.34-2.31-3.45-.27-.38-.54-.76-.81-1.14.09.26.18.52.26.79.3.93.58,1.81,1.07,2.54,2.68,4.04,4.06,8.76,4.21,14.42.06,2.41-.73,3.94-2.59,4.98-8.93,4.97-16.62,7.33-24.17,7.33ZM271.36,216.13c-.98,0-2.04.21-3.25.54-.99.27-1.93.99-2.84,1.68-.26.2-.51.39-.77.58-3.65,2.64-7.28,5.29-10.92,7.93-4.82,3.51-9.64,7.01-14.48,10.5-1.87,1.35-3.76,2.66-5.66,3.98-2.69,1.87-5.48,3.8-8.14,5.8-1.26.94-2.49,2.39-3.57,4.18-.96,1.59-1.24,3.27-.81,4.73.39,1.33,1.35,2.4,2.78,3.1,4.6,2.25,9.12,4.35,13.73,5.33,4.75,1.01,9.67,1.66,14.43,2.28,3.18.42,6.47.85,9.69,1.39,9.38,1.57,18.52-.5,29.66-6.7,1.53-.85,2.13-2.03,2.08-4.08-.15-5.47-1.47-10.01-4.05-13.9-.56-.85-.88-1.83-1.19-2.79-.14-.42-.27-.84-.43-1.25l-.16-.42,1.55-.79.25.36c.36.52.73,1.04,1.1,1.56.81,1.13,1.65,2.3,2.36,3.54,2.27,3.95,3.26,8.46,3.19,14.6l.06.03,3.97-4.4c7.49-8.29,10.03-17.17,7.53-26.38-3.69-13.63-12.83-23.46-27.16-29.2-2.56-1.03-6.03-1.32-9.52-.8-4.29.64-8.89,1.84-14.05,3.68-1.93.69-3.88,1.43-5.77,2.16-7.43,2.85-15.12,5.79-23.54,5.79h0c-.55,0-1.57.79-1.97,1.54-1.62,2.99-3.26,6-4.4,9.12-2.39,6.51-2.62,11.98-.74,17.22,1.16,3.22,1.66,3.76,4.83,2.69,12.74-4.31,24.3-11.46,35.35-21.85,4.52-4.25,8.82-5.54,13.55-4.06,5.22,1.63,6.95,6.15,8.63,10.51.18.46.36.93.54,1.39l.31.79-.84-.11c-1.27-.17-2.21-.64-2.7-1.35-.69-1-1.31-2.06-1.91-3.09-.51-.88-1.04-1.78-1.61-2.64-1.55-2.35-3.14-3.19-5.1-3.19ZM182.92,256.45c-5.53,0-10.37-1.01-14.69-3.06-5.31-2.52-8.41-6.62-9.21-12.21-.86-6.02-1.63-12.16-2.38-18.09l-.61-4.85c-.07-.55-.05-1.11-.04-1.75,0-.32.02-.68.02-1.07v-.97l.79.56c7.9,5.61,16.89,8.06,25.59,10.42,1.61.44,3.22.88,4.82,1.33,2.95.84,6.07,1.3,9.09,1.74,1.99.29,4.05.6,6.06,1.01,3.41.7,5.63,2.07,6.6,4.09,1.03,2.14.66,4.99-1.12,8.48-1.01,1.98-2.73,3.95-4.84,5.55-3.5,2.65-7.3,4.98-10.99,7.24-1.16.71-2.57,1.16-4.05,1.31-1.75.17-3.43.26-5.06.26ZM157,216.36c0,.05,0,.1,0,.15-.02.62-.03,1.12.03,1.59l.61,4.85c.74,5.93,1.51,12.06,2.38,18.08.75,5.23,3.66,9.09,8.65,11.45,5.43,2.57,11.71,3.46,19.22,2.71,1.33-.13,2.59-.53,3.55-1.12,3.74-2.3,7.53-4.62,10.99-7.24,2-1.51,3.61-3.36,4.55-5.21,1.62-3.2,2-5.75,1.11-7.6-.83-1.72-2.82-2.91-5.9-3.54-1.98-.4-4.02-.71-6-1-3.05-.45-6.21-.91-9.22-1.77-1.6-.46-3.2-.89-4.81-1.33-8.5-2.31-17.28-4.7-25.13-10.03ZM155.69,241.96l-1.01-1.58c-6.95-10.88-10.12-23.41-9.98-39.45v-1.41s.89,1.1.89,1.1c.49.62,1,1.23,1.5,1.84,3.51,4.28,7.15,8.71,7.26,15.1.08,4.56.4,9.19.72,13.67.14,2.05.29,4.09.41,6.14.04.62.06,1.24.09,1.86l.12,2.72ZM145.7,202.34c.05,14.38,2.88,25.86,8.82,35.87-.01-.26-.03-.52-.04-.78-.12-2.04-.27-4.08-.41-6.13-.32-4.5-.65-9.14-.72-13.73-.1-6.04-3.47-10.15-7.03-14.49-.21-.25-.41-.5-.62-.75ZM145.45,241.37c-.14,0-.28-.02-.41-.06-.69-.19-1.14-.83-1.66-1.78-4.92-9.15-7.04-19.28-9.1-29.08l-.3-1.44c-1.13-5.4-2.63-9.86-6.24-14.09l-.82-.96,1.25.14c2.7.3,4.11,1.2,5.02,3.23.66,1.46,1.87,2.76,3.06,3.96,2.37,2.4,3.59,4.93,3.84,7.97.72,8.69,2.9,17.57,7.07,28.8.3.8.13,2.52-.63,2.96-.39.23-.76.34-1.1.34ZM129.34,195.31c3.35,4.37,4.69,9.06,5.62,13.5l.3,1.44c2.04,9.73,4.15,19.79,9,28.81.31.58.68,1.19,1.05,1.29.07.02.28.08.73-.19.2-.17.39-1.23.2-1.75-4.2-11.31-6.4-20.28-7.13-29.06-.23-2.79-1.36-5.13-3.56-7.35-1.25-1.27-2.53-2.64-3.26-4.25-.61-1.36-1.44-2.07-2.95-2.43ZM209.78,227.38l-7.64-27.67,18.48,7.52-9.5,19.87-1.34.29ZM203.64,201.4l6.83,24.74,8.79-18.38-15.62-6.36Z"/>
      <path class="cls-1" d="M190.15.5h11.1c3,0,5.4,1.14,5.4,4.5s-2.46,4.44-5.42,4.42h-.84l6.84,5.08h-3.36l-6.54-5h-5.02v5h-2.16V.5ZM201.27,7.48c1.8,0,3.16-.64,3.16-2.48s-1.34-2.48-3.12-2.48h-9v4.96h8.96Z"/>
      <path class="cls-1" d="M266.09,134.56v-6.2h-12.08v6.2h-2.16v-14h2.16v5.78h12.08v-5.78h2.16v14h-2.16Z"/>
      <path class="cls-1" d="M346.97,287.5v-2.4h2.16v2.4h-2.16ZM346.97,299.26v-10.42l2.16-.24v10.66h-2.16Z"/>
      <path class="cls-1" d="M219.38,438.77v-2.02l8.76-7.18,3.48-2.78h-12v-2.02h15.02v2.02l-8.76,7.18-3.5,2.78h12.76v2.02h-15.76Z"/>
      <path class="cls-1" d="M9.9,294.99c6.18,0,9.4,3.14,9.4,7.3s-3.22,7.3-9.4,7.3-9.4-3.14-9.4-7.3,3.22-7.3,9.4-7.3ZM9.9,307.57c4.84,0,7.18-2.22,7.18-5.28s-2.34-5.28-7.18-5.28-7.2,2.22-7.2,5.28,2.34,5.28,7.2,5.28Z"/>
      <path class="cls-1" d="M58.32,202.7l-7.3-8.6.06,2.06v9.06h-2.16v-14h2.14l7.94,9.36,7.92-9.36h2.16v14h-2.16v-9.06l.04-2.06-7.3,8.6h-1.34Z"/>
    </g>
  </g>
</svg>